<svg xmlns="http://www.w3.org/2000/svg" viewBox="0 0 900 650" role="img" aria-label="Original hull protection and provisional rooms">
<rect width="900" height="650" fill="#f2f0e9"/>
<text x="24" y="35" font-family="sans-serif" font-size="22">Station 33.550 m from stern · runtime Z 0.000 m</text>
<polygon points="450.00,475.25 461.18,475.25 461.18,473.38 461.18,471.51 461.18,469.64 461.18,467.77 461.18,465.90 461.18,464.84 461.18,464.03 465.66,462.17 470.21,460.30 473.76,458.43 476.72,456.56 479.26,454.69 481.48,452.82 483.46,450.95 485.22,449.08 486.81,447.21 488.24,445.34 489.52,443.47 490.69,441.60 491.73,439.73 492.67,437.86 493.51,436.00 494.26,434.13 494.91,432.26 495.48,430.39 495.96,428.52 496.37,426.65 496.69,424.78 496.94,422.91 497.26,421.04 500.67,419.17 503.01,417.30 504.83,415.43 506.30,413.56 507.51,411.69 508.51,409.83 509.34,407.96 510.02,406.09 510.56,404.22 510.97,402.35 511.27,400.48 511.46,398.61 511.53,396.74 511.53,396.40 511.50,394.87 511.35,393.00 511.10,391.13 510.72,389.26 510.23,387.39 509.60,385.52 508.83,383.66 507.89,381.79 506.76,379.92 505.40,378.05 503.72,376.18 501.60,374.31 498.70,372.44 493.15,370.57 487.92,370.35 487.21,368.70 486.41,366.83 485.61,364.96 484.81,363.09 484.01,361.22 483.20,359.35 482.40,357.49 481.60,355.62 418.40,355.62 417.60,357.49 416.80,359.35 415.99,361.22 415.19,363.09 414.39,364.96 413.59,366.83 412.79,368.70 412.08,370.35 406.85,370.57 401.30,372.44 398.40,374.31 396.28,376.18 394.60,378.05 393.24,379.92 392.11,381.79 391.17,383.66 390.40,385.52 389.77,387.39 389.28,389.26 388.90,391.13 388.65,393.00 388.50,394.87 388.47,396.40 388.47,396.74 388.54,398.61 388.73,400.48 389.03,402.35 389.44,404.22 389.98,406.09 390.66,407.96 391.49,409.83 392.49,411.69 393.70,413.56 395.17,415.43 396.99,417.30 399.33,419.17 402.74,421.04 403.06,422.91 403.31,424.78 403.63,426.65 404.04,428.52 404.52,430.39 405.09,432.26 405.74,434.13 406.49,436.00 407.33,437.86 408.27,439.73 409.31,441.60 410.48,443.47 411.76,445.34 413.19,447.21 414.78,449.08 416.54,450.95 418.52,452.82 420.74,454.69 423.28,456.56 426.24,458.43 429.79,460.30 434.34,462.17 438.82,464.03 438.82,464.84 438.82,465.90 438.82,467.77 438.82,469.64 438.82,471.51 438.82,473.38 438.82,475.25 450.00,475.25" fill="#e3e2dc" stroke="#526772" stroke-width="2"/>
<rect x="434.30843" y="444.0784" width="31.383139999999997" height="17.4976" fill="#9fbbad" fill-opacity=".28" stroke="#74847c"><title>Control room</title></rect>
<rect x="412.23827" y="426.4608" width="75.52346" height="17.4976" fill="#9fbbad" fill-opacity=".28" stroke="#74847c"><title>Control room</title></rect>
<rect x="404.98448" y="408.8432" width="90.03104" height="17.4976" fill="#9fbbad" fill-opacity=".28" stroke="#74847c"><title>Control room</title></rect>
<rect x="412.23827" y="391.2256" width="75.52346" height="17.4976" fill="#9fbbad" fill-opacity=".28" stroke="#74847c"><title>Control room</title></rect>
<rect x="434.30843" y="373.608" width="31.383139999999997" height="17.4976" fill="#9fbbad" fill-opacity=".28" stroke="#74847c"><title>Control room</title></rect>
<path d="M40 380H860" stroke="#3a6c8e" stroke-dasharray="8 5"/>
<text x="24" y="598" font-family="sans-serif" font-size="16">Y = 0 is the declared load datum. Steel thickness to scale, minimum 0.8 px.</text>
<text x="24" y="626" font-family="sans-serif" font-size="16">Room envelopes and armor boundaries are reconstructed, not certified subdivision.</text>
</svg>