<svg xmlns="http://www.w3.org/2000/svg" viewBox="0 0 900 720" role="img" aria-label="Authored hull, armor and room section">
<rect width="900" height="720" fill="#f2f0e9"/>
<text x="24" y="38" font-family="sans-serif" font-size="23" fill="#243845">Frame 46.15 · reconstructed hull / protection / spaces</text>
<polygon points="450.00,583.44 501.62,583.44 547.75,583.44 586.43,583.44 615.73,583.44 637.27,581.44 654.85,576.28 669.71,569.20 683.13,561.42 696.85,552.35 710.19,540.64 720.73,526.49 726.06,510.06 727.55,487.04 728.46,457.02 729.22,426.00 730.27,400.00 732.03,379.41 734.25,360.70 736.29,344.02 737.51,329.50 738.08,316.59 738.54,304.89 738.84,294.68 738.96,286.28 161.04,286.28 161.16,294.68 161.46,304.89 161.92,316.59 162.49,329.50 163.71,344.02 165.75,360.70 167.97,379.41 169.73,400.00 170.78,426.00 171.54,457.02 172.45,487.04 173.94,510.06 179.27,526.49 189.81,540.64 203.15,552.35 216.87,561.42 230.29,569.20 245.15,576.28 262.73,581.44 284.27,583.44 313.57,583.44 352.25,583.44 398.38,583.44 450.00,583.44" fill="#e3e2dc" stroke="#526772" stroke-width="2"/>
<rect x="330.0" y="430.0" width="240" height="48.0" fill="#aa927e" fill-opacity=".28" stroke="#74847c" stroke-width=".7"><title>Dora propellant magazines</title></rect>
<rect x="330.0" y="482.0" width="240" height="50.0" fill="#9fbbad" fill-opacity=".28" stroke="#74847c" stroke-width=".7"><title>Dora shell rooms</title></rect>
<rect x="365.0" y="316.0" width="170.0" height="64.0" fill="#9fbbad" fill-opacity=".28" stroke="#74847c" stroke-width=".7"><title>Dora handling space</title></rect>
<rect x="342.0" y="534.0" width="16.0" height="14.0" fill="#9fbbad" fill-opacity=".28" stroke="#74847c" stroke-width=".7"><title>Port shaft passage</title></rect>
<rect x="442.0" y="534.0" width="16.0" height="14.0" fill="#9fbbad" fill-opacity=".28" stroke="#74847c" stroke-width=".7"><title>Center shaft passage</title></rect>
<rect x="542.0" y="534.0" width="16.0" height="14.0" fill="#9fbbad" fill-opacity=".28" stroke="#74847c" stroke-width=".7"><title>Starboard shaft passage</title></rect>
<line x1="177.26143925811436" y1="430.0" x2="177.26143925811436" y2="334.0" stroke="#9b5a27" stroke-width="6.4"><title>Port Main Belt 0 · 320 mm</title></line>
<line x1="180.96143925811435" y1="430.0" x2="180.96143925811435" y2="334.0" stroke="#ba9560" stroke-width="1.0"><title>Port Teak Backing 0 · 50 mm</title></line>
<line x1="181.72143925811434" y1="430.0" x2="181.72143925811434" y2="334.0" stroke="#666d70" stroke-width="0.7"><title>Port Belt Support 0 · 20 mm</title></line>
<line x1="177.26143925811436" y1="334.0" x2="177.26143925811436" y2="286.6" stroke="#9b5a27" stroke-width="2.9"><title>Port Upper Belt 0 · 145 mm</title></line>
<line x1="247.26143925811436" y1="552.0" x2="247.26143925811436" y2="426.4" stroke="#45876a" stroke-width="0.8999999999999999"><title>Port Torpedo Bulkhead 0 · 45 mm</title></line>
<line x1="247.26143925811436" y1="380.6" x2="247.26143925811436" y2="286.6" stroke="#307ca2" stroke-width="0.7"><title>Port Splinter Bulkhead 0 · 30 mm</title></line>
<line x1="184.26143925811436" y1="426.4" x2="247.26143925811436" y2="380.6" stroke="#307ca2" stroke-width="2.4"><title>Port Turtleback 0 · 120 mm</title></line>
<line x1="722.7385607418856" y1="430.0" x2="722.7385607418856" y2="334.0" stroke="#9b5a27" stroke-width="6.4"><title>Starboard Main Belt 0 · 320 mm</title></line>
<line x1="719.0385607418857" y1="430.0" x2="719.0385607418857" y2="334.0" stroke="#ba9560" stroke-width="1.0"><title>Starboard Teak Backing 0 · 50 mm</title></line>
<line x1="718.2785607418857" y1="430.0" x2="718.2785607418857" y2="334.0" stroke="#666d70" stroke-width="0.7"><title>Starboard Belt Support 0 · 20 mm</title></line>
<line x1="722.7385607418856" y1="334.0" x2="722.7385607418856" y2="286.6" stroke="#9b5a27" stroke-width="2.9"><title>Starboard Upper Belt 0 · 145 mm</title></line>
<line x1="652.7385607418856" y1="552.0" x2="652.7385607418856" y2="426.4" stroke="#45876a" stroke-width="0.8999999999999999"><title>Starboard Torpedo Bulkhead 0 · 45 mm</title></line>
<line x1="652.7385607418856" y1="380.6" x2="652.7385607418856" y2="286.6" stroke="#307ca2" stroke-width="0.7"><title>Starboard Splinter Bulkhead 0 · 30 mm</title></line>
<line x1="715.7385607418856" y1="426.4" x2="652.7385607418856" y2="380.6" stroke="#307ca2" stroke-width="2.4"><title>Starboard Turtleback 0 · 120 mm</title></line>
<line x1="722.7385607418856" y1="286.6" x2="177.26143925811436" y2="286.6" stroke="#307ca2" stroke-width="1.0"><title>Upper Deck 0 · 50 mm</title></line>
<line x1="722.7385607418856" y1="334.6" x2="177.26143925811436" y2="334.6" stroke="#666d70" stroke-width="0.7"><title>Battery Deck 0 · 12 mm</title></line>
<line x1="652.7385607418856" y1="380.6" x2="247.26143925811436" y2="380.6" stroke="#307ca2" stroke-width="2.0"><title>Armor Deck 0 · 100 mm</title></line>
<line x1="183.26143925811436" y1="430.0" x2="202.26143925811436" y2="536.0" stroke="#666d70" stroke-width="0.7"><title>Port Lower Plating 0 · 20 mm</title></line>
<line x1="716.7385607418856" y1="430.0" x2="697.7385607418856" y2="536.0" stroke="#666d70" stroke-width="0.7"><title>Starboard Lower Plating 0 · 20 mm</title></line>
<path d="M40 400H860" stroke="#3a6c8e" stroke-dasharray="8 5"/>
<text x="40" y="391" font-family="sans-serif" font-size="15">Y = 0 · standard waterline</text>
<text x="24" y="645" font-family="sans-serif" font-size="16">Keel Y = -9.33 m · 20 px/m · plate thickness drawn to scale (minimum 0.7 px)</text>
<text x="24" y="674" font-family="sans-serif" font-size="16">Brown KC · blue Wh · green Ww · gray structure · tan teak. Room envelopes are estimated.</text>
</svg>