<svg xmlns="http://www.w3.org/2000/svg" viewBox="0 0 900 720" role="img" aria-label="Authored hull, armor and room section">
<rect width="900" height="720" fill="#f2f0e9"/>
<text x="24" y="38" font-family="sans-serif" font-size="23" fill="#243845">Frame 64.35 · reconstructed hull / protection / spaces</text>
<polygon points="450.00,586.60 514.08,586.60 570.99,586.60 617.82,586.60 651.67,586.60 675.38,584.57 694.47,579.32 710.03,572.12 723.16,564.21 735.52,554.98 746.96,543.07 755.85,528.67 760.58,511.96 762.22,488.50 763.25,457.87 764.12,426.30 765.31,400.00 767.29,379.37 769.78,360.72 772.06,344.13 773.44,329.68 774.07,316.81 774.59,305.13 774.93,294.95 775.06,286.58 124.94,286.58 125.07,294.95 125.41,305.13 125.93,316.81 126.56,329.68 127.94,344.13 130.22,360.72 132.71,379.37 134.69,400.00 135.88,426.30 136.75,457.87 137.78,488.50 139.42,511.96 144.15,528.67 153.04,543.07 164.48,554.98 176.84,564.21 189.97,572.12 205.53,579.32 224.62,584.57 248.33,586.60 282.18,586.60 329.01,586.60 385.92,586.60 450.00,586.60" fill="#e3e2dc" stroke="#526772" stroke-width="2"/>
<rect x="330.0" y="430.0" width="240" height="48.0" fill="#aa927e" fill-opacity=".28" stroke="#74847c" stroke-width=".7"><title>Cäsar propellant magazines</title></rect>
<rect x="330.0" y="482.0" width="240" height="50.0" fill="#9fbbad" fill-opacity=".28" stroke="#74847c" stroke-width=".7"><title>Cäsar shell rooms</title></rect>
<rect x="365.0" y="316.0" width="170.0" height="64.0" fill="#9fbbad" fill-opacity=".28" stroke="#74847c" stroke-width=".7"><title>Cäsar handling space</title></rect>
<rect x="342.0" y="534.0" width="16.0" height="14.0" fill="#9fbbad" fill-opacity=".28" stroke="#74847c" stroke-width=".7"><title>Port shaft passage</title></rect>
<rect x="442.0" y="534.0" width="16.0" height="14.0" fill="#9fbbad" fill-opacity=".28" stroke="#74847c" stroke-width=".7"><title>Center shaft passage</title></rect>
<rect x="542.0" y="534.0" width="16.0" height="14.0" fill="#9fbbad" fill-opacity=".28" stroke="#74847c" stroke-width=".7"><title>Starboard shaft passage</title></rect>
<line x1="132.26080000000002" y1="430.0" x2="132.26080000000002" y2="334.0" stroke="#9b5a27" stroke-width="6.4"><title>Port Main Belt 0 · 320 mm</title></line>
<line x1="135.9608" y1="430.0" x2="135.9608" y2="334.0" stroke="#ba9560" stroke-width="1.0"><title>Port Teak Backing 0 · 50 mm</title></line>
<line x1="136.7208" y1="430.0" x2="136.7208" y2="334.0" stroke="#666d70" stroke-width="0.7"><title>Port Belt Support 0 · 20 mm</title></line>
<line x1="132.26080000000002" y1="334.0" x2="132.26080000000002" y2="286.6" stroke="#9b5a27" stroke-width="2.9"><title>Port Upper Belt 0 · 145 mm</title></line>
<line x1="202.26080000000002" y1="552.0" x2="202.2608" y2="426.4" stroke="#45876a" stroke-width="0.8999999999999999"><title>Port Torpedo Bulkhead 0 · 45 mm</title></line>
<line x1="202.26080000000002" y1="380.6" x2="202.2608" y2="286.6" stroke="#307ca2" stroke-width="0.7"><title>Port Splinter Bulkhead 0 · 30 mm</title></line>
<line x1="139.26080000000002" y1="426.4" x2="202.2608" y2="380.6" stroke="#307ca2" stroke-width="2.4"><title>Port Turtleback 0 · 120 mm</title></line>
<line x1="767.7392" y1="430.0" x2="767.7392" y2="334.0" stroke="#9b5a27" stroke-width="6.4"><title>Starboard Main Belt 0 · 320 mm</title></line>
<line x1="764.0391999999999" y1="430.0" x2="764.0391999999999" y2="334.0" stroke="#ba9560" stroke-width="1.0"><title>Starboard Teak Backing 0 · 50 mm</title></line>
<line x1="763.2792" y1="430.0" x2="763.2792" y2="334.0" stroke="#666d70" stroke-width="0.7"><title>Starboard Belt Support 0 · 20 mm</title></line>
<line x1="767.7392" y1="334.0" x2="767.7392" y2="286.6" stroke="#9b5a27" stroke-width="2.9"><title>Starboard Upper Belt 0 · 145 mm</title></line>
<line x1="697.7392" y1="552.0" x2="697.7392" y2="426.4" stroke="#45876a" stroke-width="0.8999999999999999"><title>Starboard Torpedo Bulkhead 0 · 45 mm</title></line>
<line x1="697.7392" y1="380.6" x2="697.7392" y2="286.6" stroke="#307ca2" stroke-width="0.7"><title>Starboard Splinter Bulkhead 0 · 30 mm</title></line>
<line x1="760.7392" y1="426.4" x2="697.7392" y2="380.6" stroke="#307ca2" stroke-width="2.4"><title>Starboard Turtleback 0 · 120 mm</title></line>
<line x1="767.7392" y1="286.6" x2="132.26080000000002" y2="286.6" stroke="#307ca2" stroke-width="1.0"><title>Upper Deck 0 · 50 mm</title></line>
<line x1="767.7392" y1="334.6" x2="132.26080000000002" y2="334.6" stroke="#666d70" stroke-width="0.7"><title>Battery Deck 0 · 12 mm</title></line>
<line x1="697.7392" y1="380.6" x2="202.2608" y2="380.6" stroke="#307ca2" stroke-width="2.0"><title>Armor Deck 0 · 100 mm</title></line>
<line x1="549.0" y1="380.6" x2="549.0" y2="286.6" stroke="#9b5a27" stroke-width="4.4"><title>Caesar Barbette Lower 0 · 220 mm</title></line>
<line x1="351.00000000000006" y1="380.6" x2="351.00000000000006" y2="286.6" stroke="#9b5a27" stroke-width="4.4"><title>Caesar Barbette Lower 3 · 220 mm</title></line>
<line x1="549.0" y1="286.6" x2="549.0" y2="184.0" stroke="#9b5a27" stroke-width="6.800000000000001"><title>Caesar Barbette Upper 0 · 340 mm</title></line>
<line x1="351.00000000000006" y1="286.6" x2="351.00000000000006" y2="184.0" stroke="#9b5a27" stroke-width="6.800000000000001"><title>Caesar Barbette Upper 3 · 340 mm</title></line>
<line x1="138.26080000000002" y1="430.0" x2="157.26080000000002" y2="536.0" stroke="#666d70" stroke-width="0.7"><title>Port Lower Plating 0 · 20 mm</title></line>
<line x1="761.7392" y1="430.0" x2="742.7392" y2="536.0" stroke="#666d70" stroke-width="0.7"><title>Starboard Lower Plating 0 · 20 mm</title></line>
<path d="M40 400H860" stroke="#3a6c8e" stroke-dasharray="8 5"/>
<text x="40" y="391" font-family="sans-serif" font-size="15">Y = 0 · standard waterline</text>
<text x="24" y="645" font-family="sans-serif" font-size="16">Keel Y = -9.33 m · 20 px/m · plate thickness drawn to scale (minimum 0.7 px)</text>
<text x="24" y="674" font-family="sans-serif" font-size="16">Brown KC · blue Wh · green Ww · gray structure · tan teak. Room envelopes are estimated.</text>
</svg>