<svg xmlns="http://www.w3.org/2000/svg" viewBox="0 0 900 720" role="img" aria-label="Authored hull, armor and room section">
<rect width="900" height="720" fill="#f2f0e9"/>
<text x="24" y="38" font-family="sans-serif" font-size="23" fill="#243845">Frame 120.8 · reconstructed hull / protection / spaces</text>
<polygon points="450.00,586.60 520.91,586.60 583.89,586.60 635.72,586.60 673.20,586.60 699.07,584.57 719.55,579.32 736.66,572.12 752.40,564.21 768.95,554.98 785.14,543.07 798.02,528.67 804.60,511.96 806.82,488.50 808.52,457.87 809.62,426.30 810.00,400.00 809.72,379.37 809.10,360.73 808.48,344.14 808.20,329.69 808.31,316.83 808.65,305.15 809.21,294.97 810.00,286.60 90.00,286.60 90.79,294.97 91.35,305.15 91.69,316.83 91.80,329.69 91.52,344.14 90.90,360.73 90.28,379.37 90.00,400.00 90.38,426.30 91.48,457.87 93.18,488.50 95.40,511.96 101.98,528.67 114.86,543.07 131.05,554.98 147.60,564.21 163.34,572.12 180.45,579.32 200.93,584.57 226.80,586.60 264.28,586.60 316.11,586.60 379.09,586.60 450.00,586.60" fill="#e3e2dc" stroke="#526772" stroke-width="2"/>
<rect x="220.0" y="406.0" width="140" height="126.0" fill="#9fbbad" fill-opacity=".28" stroke="#74847c" stroke-width=".7"><title>Aft port boiler room · two Wagner boilers</title></rect>
<rect x="380.0" y="406.0" width="140" height="126.0" fill="#9fbbad" fill-opacity=".28" stroke="#74847c" stroke-width=".7"><title>Aft center boiler room · two Wagner boilers</title></rect>
<rect x="540.0" y="406.0" width="140" height="126.0" fill="#9fbbad" fill-opacity=".28" stroke="#74847c" stroke-width=".7"><title>Aft starboard boiler room · two Wagner boilers</title></rect>
<rect x="167.5" y="430.0" width="25.0" height="84.0" fill="#9fbbad" fill-opacity=".28" stroke="#74847c" stroke-width=".7"><title>Port fuel bunker envelope · frame 120</title></rect>
<rect x="137.5" y="430.0" width="25.0" height="84.0" fill="#9fbbad" fill-opacity=".28" stroke="#74847c" stroke-width=".7"><title>Port outer void · frame 120</title></rect>
<rect x="707.5" y="430.0" width="25.0" height="84.0" fill="#9fbbad" fill-opacity=".28" stroke="#74847c" stroke-width=".7"><title>Starboard fuel bunker envelope · frame 120</title></rect>
<rect x="737.5" y="430.0" width="25.0" height="84.0" fill="#9fbbad" fill-opacity=".28" stroke="#74847c" stroke-width=".7"><title>Starboard outer void · frame 120</title></rect>
<line x1="111.48242873239434" y1="430.0" x2="111.48242873239434" y2="334.0" stroke="#9b5a27" stroke-width="6.4"><title>Port Main Belt 2 · 320 mm</title></line>
<line x1="115.18242873239438" y1="430.0" x2="115.18242873239438" y2="334.0" stroke="#ba9560" stroke-width="1.0"><title>Port Teak Backing 2 · 50 mm</title></line>
<line x1="115.94242873239438" y1="430.0" x2="115.94242873239438" y2="334.0" stroke="#666d70" stroke-width="0.7"><title>Port Belt Support 2 · 20 mm</title></line>
<line x1="111.48242873239434" y1="334.0" x2="111.48242873239434" y2="286.6" stroke="#9b5a27" stroke-width="2.9"><title>Port Upper Belt 2 · 145 mm</title></line>
<line x1="219.48242873239437" y1="552.0" x2="219.48242873239437" y2="426.4" stroke="#45876a" stroke-width="0.8999999999999999"><title>Port Torpedo Bulkhead 2 · 45 mm</title></line>
<line x1="219.48242873239437" y1="380.6" x2="219.48242873239437" y2="286.6" stroke="#307ca2" stroke-width="0.7"><title>Port Splinter Bulkhead 2 · 30 mm</title></line>
<line x1="118.48242873239434" y1="426.4" x2="219.48242873239437" y2="380.6" stroke="#307ca2" stroke-width="2.2"><title>Port Turtleback 2 · 110 mm</title></line>
<line x1="788.5175712676057" y1="430.0" x2="788.5175712676057" y2="334.0" stroke="#9b5a27" stroke-width="6.4"><title>Starboard Main Belt 2 · 320 mm</title></line>
<line x1="784.8175712676057" y1="430.0" x2="784.8175712676057" y2="334.0" stroke="#ba9560" stroke-width="1.0"><title>Starboard Teak Backing 2 · 50 mm</title></line>
<line x1="784.0575712676057" y1="430.0" x2="784.0575712676057" y2="334.0" stroke="#666d70" stroke-width="0.7"><title>Starboard Belt Support 2 · 20 mm</title></line>
<line x1="788.5175712676057" y1="334.0" x2="788.5175712676057" y2="286.6" stroke="#9b5a27" stroke-width="2.9"><title>Starboard Upper Belt 2 · 145 mm</title></line>
<line x1="680.5175712676056" y1="552.0" x2="680.5175712676056" y2="426.4" stroke="#45876a" stroke-width="0.8999999999999999"><title>Starboard Torpedo Bulkhead 2 · 45 mm</title></line>
<line x1="680.5175712676056" y1="380.6" x2="680.5175712676056" y2="286.6" stroke="#307ca2" stroke-width="0.7"><title>Starboard Splinter Bulkhead 2 · 30 mm</title></line>
<line x1="781.5175712676057" y1="426.4" x2="680.5175712676056" y2="380.6" stroke="#307ca2" stroke-width="2.2"><title>Starboard Turtleback 2 · 110 mm</title></line>
<line x1="788.5175712676057" y1="286.6" x2="111.48242873239434" y2="286.6" stroke="#307ca2" stroke-width="1.0"><title>Upper Deck 2 · 50 mm</title></line>
<line x1="788.5175712676057" y1="334.6" x2="111.48242873239434" y2="334.6" stroke="#666d70" stroke-width="0.7"><title>Battery Deck 2 · 12 mm</title></line>
<line x1="680.5175712676056" y1="380.6" x2="219.48242873239437" y2="380.6" stroke="#307ca2" stroke-width="1.6"><title>Armor Deck 2 · 80 mm</title></line>
<line x1="117.48242873239434" y1="430.0" x2="136.48242873239434" y2="536.0" stroke="#666d70" stroke-width="0.7"><title>Port Lower Plating 2 · 20 mm</title></line>
<line x1="782.5175712676057" y1="430.0" x2="763.5175712676057" y2="536.0" stroke="#666d70" stroke-width="0.7"><title>Starboard Lower Plating 2 · 20 mm</title></line>
<path d="M40 400H860" stroke="#3a6c8e" stroke-dasharray="8 5"/>
<text x="40" y="391" font-family="sans-serif" font-size="15">Y = 0 · standard waterline</text>
<text x="24" y="645" font-family="sans-serif" font-size="16">Keel Y = -9.33 m · 20 px/m · plate thickness drawn to scale (minimum 0.7 px)</text>
<text x="24" y="674" font-family="sans-serif" font-size="16">Brown KC · blue Wh · green Ww · gray structure · tan teak. Room envelopes are estimated.</text>
</svg>